<?xml version="1.0" standalone="no"?>
<!DOCTYPE svg PUBLIC "-//W3C//DTD SVG 20010904//EN"
 "http://www.w3.org/TR/2001/REC-SVG-20010904/DTD/svg10.dtd">
<svg version="1.0" xmlns="http://www.w3.org/2000/svg"
 width="649.000000pt" height="649.000000pt" viewBox="0 0 649.000000 649.000000"
 preserveAspectRatio="xMidYMid meet">
<metadata>
Created by potrace 1.14, written by Peter Selinger 2001-2017
</metadata>
<g transform="translate(0.000000,649.000000) scale(0.100000,-0.100000)"
fill="#000000" stroke="none">
<path d="M1503 6483 c-5 -1 -71 -4 -148 -7 -163 -6 -225 -13 -279 -31 -22 -8
-43 -12 -48 -9 -4 3 -8 0 -8 -7 0 -7 -3 -9 -7 -6 -3 4 -12 2 -20 -4 -7 -6 -13
-9 -13 -6 0 3 -16 -1 -35 -9 -19 -8 -36 -14 -37 -13 -6 1 -64 -23 -109 -46
-26 -13 -50 -21 -53 -18 -3 4 -6 1 -6 -5 0 -7 -4 -12 -10 -12 -10 0 -111 -59
-120 -70 -3 -4 -20 -15 -38 -25 -17 -11 -32 -23 -32 -27 0 -4 -5 -8 -11 -8
-20 0 -209 -187 -209 -206 0 -3 -9 -14 -20 -26 -45 -49 -143 -232 -180 -338
-74 -212 -70 -90 -65 -2185 2 -1034 6 -1911 9 -1950 4 -38 8 -86 10 -105 2
-19 7 -64 11 -100 9 -88 48 -261 80 -354 31 -94 110 -261 135 -286 3 -3 23
-32 45 -65 41 -61 184 -211 243 -255 18 -14 61 -42 95 -63 33 -20 63 -41 66
-45 6 -7 96 -52 171 -86 52 -23 140 -53 180 -62 19 -4 40 -9 45 -11 28 -8 105
-22 147 -26 25 -3 51 -8 57 -12 6 -3 11 -1 11 6 0 8 4 8 12 2 15 -12 797 -11
816 1 6 4 12 4 12 -1 0 -11 2911 -10 2929 1 8 6 12 5 8 0 -7 -11 86 -6 188 12
47 8 208 52 251 69 105 42 184 79 184 86 0 3 6 6 13 6 19 0 156 96 207 145 39
38 160 168 190 205 6 7 10 17 10 22 0 5 6 16 13 23 24 25 58 78 50 78 -4 0 -3
4 2 8 15 10 82 150 91 187 4 17 10 35 15 40 4 6 10 22 13 35 2 14 12 55 20 92
9 37 16 71 15 75 -1 4 0 10 1 13 4 11 10 47 15 84 2 21 7 57 10 79 18 117 26
687 10 687 -7 0 -7 3 0 8 11 8 14 92 3 92 -3 0 -3 12 1 28 8 30 6 103 -3 127
-3 8 -2 15 3 15 9 0 5 85 -4 100 -3 6 -2 10 2 10 5 0 8 19 6 42 -2 24 -3 48
-3 53 5 80 2 2555 -3 2620 -4 50 -10 128 -12 175 -7 105 -26 227 -40 250 -3 5
-8 20 -10 32 -14 69 -129 311 -173 361 -8 9 -12 17 -9 17 4 0 -1 8 -10 18 -29
31 -53 62 -53 69 0 4 -48 54 -107 113 -98 96 -190 170 -213 170 -4 0 -10 4
-12 9 -3 8 -170 100 -186 102 -4 0 -23 7 -42 15 -39 17 -195 63 -235 70 -14 2
-37 6 -52 9 -16 3 -48 8 -73 12 -38 5 -3685 12 -3707 6z"/>
</g>
</svg>
