<?xml version="1.0" standalone="no"?>
<!DOCTYPE svg PUBLIC "-//W3C//DTD SVG 20010904//EN"
 "http://www.w3.org/TR/2001/REC-SVG-20010904/DTD/svg10.dtd">
<svg version="1.0" xmlns="http://www.w3.org/2000/svg"
 width="1024.000000pt" height="1024.000000pt" viewBox="0 0 1024.000000 1024.000000"
 preserveAspectRatio="xMidYMid meet">
<metadata>
Created by potrace 1.14, written by Peter Selinger 2001-2017
</metadata>
<g transform="translate(0.000000,1024.000000) scale(0.100000,-0.100000)"
fill="#000000" stroke="none">
<path d="M3269 8445 c-3 -3 -48 -8 -100 -10 -93 -5 -121 -8 -169 -19 -14 -3
-34 -8 -45 -10 -11 -2 -33 -10 -50 -16 -28 -11 -39 -14 -84 -24 -10 -2 -38
-13 -62 -24 -71 -32 -119 -51 -123 -49 -2 1 -13 -6 -23 -16 -11 -9 -23 -14
-26 -10 -4 3 -7 1 -7 -5 0 -6 -20 -21 -45 -33 -25 -13 -60 -36 -77 -51 -17
-15 -35 -28 -40 -28 -9 0 -19 -9 -103 -89 -93 -88 -182 -207 -243 -326 -22
-42 -56 -117 -58 -125 0 -3 -6 -17 -12 -33 -15 -35 -49 -170 -57 -222 -13 -89
-14 -212 -14 -1210 1 -1991 4 -2595 11 -2595 4 0 3 -11 -2 -25 -6 -15 -6 -27
0 -30 6 -3 6 -15 0 -29 -5 -13 -5 -27 0 -32 4 -5 11 -49 14 -99 7 -86 19 -181
30 -235 3 -14 8 -36 11 -50 9 -47 58 -215 64 -220 3 -3 7 -11 9 -18 8 -39 90
-193 142 -266 55 -77 152 -192 175 -208 6 -3 24 -18 40 -33 26 -22 155 -112
220 -152 32 -20 155 -78 215 -101 77 -30 184 -58 255 -67 22 -3 63 -9 90 -13
61 -9 3847 -8 3925 2 113 14 246 49 365 96 61 24 215 104 215 111 0 5 6 9 14
9 27 0 216 165 216 189 0 5 9 13 20 16 11 3 20 12 20 18 0 7 11 21 25 31 13
10 22 22 19 27 -3 5 -1 9 4 9 8 0 47 51 79 105 58 98 130 270 149 355 32 146
52 290 59 415 2 33 4 60 5 60 6 0 3 128 -3 132 -4 2 -4 9 -1 15 11 18 11 181
1 196 -5 6 -6 12 -1 12 5 0 9 47 9 105 0 58 -4 105 -9 105 -5 0 -4 6 1 13 11
14 11 57 0 74 -4 6 -3 14 1 17 5 3 7 18 5 33 -4 30 -4 29 0 88 2 22 -1 46 -6
53 -5 6 -6 12 -1 12 13 0 12 153 -1 162 -7 5 -7 8 0 8 12 0 13 2474 1 2595 -3
39 -8 104 -11 145 -9 154 -18 201 -66 340 -39 110 -133 298 -156 313 -7 4 -13
12 -13 17 0 11 -4 16 -83 111 -61 73 -104 116 -170 172 -57 48 -177 128 -177
119 0 -4 -4 -2 -8 4 -5 9 -132 75 -152 80 -9 2 -44 16 -65 25 -11 5 -29 10
-40 12 -11 1 -24 5 -30 8 -5 4 -23 10 -40 14 -16 5 -34 9 -40 11 -5 1 -28 6
-50 9 -52 9 -70 13 -70 15 0 13 -3103 21 -3142 8 -13 -4 -23 -4 -23 0 0 5 -17
7 -37 5 -21 -2 -44 -3 -50 -3 -34 2 -90 2 -108 1 -11 -1 -44 0 -73 2 -29 2
-56 -1 -58 -5 -3 -5 -10 -5 -17 -1 -15 9 -187 10 -187 0 0 -5 -6 -5 -12 0 -16
9 -106 10 -135 1 -12 -4 -23 -3 -25 3 -2 6 -6 8 -9 4z"/>
</g>
</svg>
